<svg version="1.1" xmlns="http://www.w3.org/2000/svg" viewBox="0 0 125.40975880361475 133.33247950819668" width="250.8195176072295" height="266.66495901639337"><!-- svg-source:excalidraw --><metadata></metadata><defs><style class="style-fonts">
      </style></defs><rect x="0" y="0" width="125.40975880361475" height="133.33247950819668" fill="#FDFDEF"></rect><g stroke-linecap="round"><g transform="translate(115.40975880361475 10) rotate(0 -51.085425204918465 56.66623975409834)"><path d="M0 0 C-7.61 1.34, -28.85 -0.78, -45.67 8.01 C-62.49 16.81, -91.51 35.22, -100.93 52.77 C-110.35 70.33, -101.96 103.24, -102.17 113.33 M0 0 C-7.61 1.34, -28.85 -0.78, -45.67 8.01 C-62.49 16.81, -91.51 35.22, -100.93 52.77 C-110.35 70.33, -101.96 103.24, -102.17 113.33" stroke="#1e1e1e" stroke-width="1" fill="none"></path></g><g transform="translate(115.40975880361475 10) rotate(0 -51.085425204918465 56.66623975409834)"><path d="M-113.01 90.81 C-108.69 99.79, -104.36 108.78, -102.17 113.33 M-113.01 90.81 C-110.47 96.09, -107.93 101.37, -102.17 113.33" stroke="#1e1e1e" stroke-width="1" fill="none"></path></g><g transform="translate(115.40975880361475 10) rotate(0 -51.085425204918465 56.66623975409834)"><path d="M-96 89.11 C-98.46 98.77, -100.92 108.44, -102.17 113.33 M-96 89.11 C-97.45 94.79, -98.89 100.46, -102.17 113.33" stroke="#1e1e1e" stroke-width="1" fill="none"></path></g></g><mask></mask></svg>